<mxfile host="app.diagrams.net" modified="2024-07-16T08:10:31.459Z" agent="Mozilla/5.0 (Macintosh; Intel Mac OS X 10_15_7) AppleWebKit/537.36 (KHTML, like Gecko) Chrome/126.0.0.0 Safari/537.36" version="24.6.5" etag="PUhwkK8W8nDRK0Bar_DD" type="github">
  <diagram name="第 1 页" id="nMjjL5bQVnrvAfyLcYpg">
    <mxGraphModel>
      <root>
        <mxCell id="0" />
        <mxCell id="1" parent="0" />
      </root>
    </mxGraphModel>
  </diagram>
</mxfile>
